<svg width="240" height="85" viewBox="0 0 240 85" fill="none" xmlns="http://www.w3.org/2000/svg">
<g clip-path="url(#clip0_2232_2822)">
<path d="M164.5 67.9236V-0.00488281H152.39V26.446H144.668V37.1702H152.39V68.4874C152.39 78.8855 157.345 84.3104 168.494 84.3104H179.928V73.5729H170.135C166.191 73.5729 164.503 71.876 164.503 67.9209L164.5 67.9236Z" fill="#F2F0E7"></path>
<path d="M68.1776 25.7295C50.6007 25.7295 38.77 37.715 38.77 55.3578C38.77 73.0007 50.6007 84.9862 68.1776 84.9862C85.7544 84.9862 97.5851 73.1129 97.5851 55.3578C97.5851 37.6027 85.7544 25.7295 68.1776 25.7295ZM68.1776 74.5827C57.9233 74.5827 51.277 66.5523 51.277 55.3578C51.277 44.1634 57.9233 36.1329 68.1776 36.1329C78.4318 36.1329 85.1926 44.1607 85.1926 55.3578C85.1926 66.555 78.4318 74.5827 68.1776 74.5827Z" fill="#F2F0E7"></path>
<path d="M115.478 37.1704V26.4463H103.315V84.3133H115.478V51.0292C115.478 42.1009 120.471 37.1731 131.066 37.1731H138.754V26.449H131.364C121.906 26.449 117.039 30.1101 115.476 37.1731L115.478 37.1704Z" fill="#F2F0E7"></path>
<path d="M35.2604 26.4463H24.5747V37.1704H35.2604V26.4463Z" fill="#F2F0E7"></path>
<path d="M35.2576 10.7326V-0.00488281H23.8237C12.6774 -0.00488281 7.72201 5.41999 7.72201 15.8181V26.446H0V37.1702H7.72201V84.3104H19.8296V16.3846C19.8322 12.4296 21.5204 10.7326 25.464 10.7326H35.2576Z" fill="#F2F0E7"></path>
<path d="M239.662 57.961C239.888 56.3789 240 54.7942 240 53.3244C239.662 36.363 228.508 25.7324 211.831 25.7324C195.154 25.7324 183.435 37.6057 183.435 55.473C183.435 73.3403 194.816 84.9891 212.957 84.9891C227.267 84.9891 236.957 76.2826 238.986 64.861H226.817C225.126 71.3067 219.718 75.0373 212.281 75.0373C202.703 75.0373 196.507 68.5916 196.168 58.752V57.961H239.662ZM211.943 35.5693C220.394 35.5693 226.364 40.4303 227.379 49.0273H196.618C197.521 40.7724 204.167 35.5693 211.943 35.5693Z" fill="#F2F0E7"></path>
<path d="M174.584 37.8863C177.928 37.8863 180.639 35.1655 180.639 31.8093C180.639 28.4532 177.928 25.7324 174.584 25.7324C171.24 25.7324 168.529 28.4532 168.529 31.8093C168.529 35.1655 171.24 37.8863 174.584 37.8863Z" fill="#F2F0E7"></path>
</g>
<defs>
<clipPath id="clip0_2232_2822">
<rect width="240" height="85" fill="white" transform="translate(0 -0.00585938)"></rect>
</clipPath>
</defs>
</svg>