<svg width="240" height="85" viewBox="0 0 240 85" fill="none" xmlns="http://www.w3.org/2000/svg">
<g clip-path="url(#clip0_2232_2814)">
<path d="M164.5 67.9285V0H152.39V26.4509H144.668V37.1751H152.39V68.4923C152.39 78.8904 157.345 84.3153 168.494 84.3153H179.928V73.5778H170.135C166.191 73.5778 164.503 71.8809 164.503 67.9258L164.5 67.9285Z" fill="#39344B"></path>
<path d="M68.1776 25.7344C50.6007 25.7344 38.77 37.7199 38.77 55.3627C38.77 73.0056 50.6007 84.991 68.1776 84.991C85.7544 84.991 97.5851 73.1178 97.5851 55.3627C97.5851 37.6076 85.7544 25.7344 68.1776 25.7344ZM68.1776 74.5876C57.9233 74.5876 51.277 66.5572 51.277 55.3627C51.277 44.1682 57.9233 36.1378 68.1776 36.1378C78.4318 36.1378 85.1926 44.1656 85.1926 55.3627C85.1926 66.5599 78.4318 74.5876 68.1776 74.5876Z" fill="#39344B"></path>
<path d="M115.478 37.1743V26.4502H103.315V84.3172H115.478V51.0331C115.478 42.1048 120.471 37.177 131.066 37.177H138.754V26.4529H131.364C121.906 26.4529 117.039 30.114 115.476 37.177L115.478 37.1743Z" fill="#39344B"></path>
<path d="M35.2604 26.4502H24.5747V37.1743H35.2604V26.4502Z" fill="#39344B"></path>
<path d="M35.2576 10.7375V0H23.8237C12.6774 0 7.72201 5.42487 7.72201 15.823V26.4509H0V37.1751H7.72201V84.3153H19.8296V16.3895C19.8322 12.4344 21.5204 10.7375 25.464 10.7375H35.2576Z" fill="#39344B"></path>
<path d="M239.662 57.9658C239.888 56.3838 240 54.7991 240 53.3293C239.662 36.3679 228.508 25.7373 211.831 25.7373C195.154 25.7373 183.435 37.6106 183.435 55.4779C183.435 73.3452 194.816 84.994 212.957 84.994C227.267 84.994 236.957 76.2875 238.986 64.8658H226.817C225.126 71.3116 219.718 75.0422 212.281 75.0422C202.703 75.0422 196.507 68.5964 196.168 58.7569V57.9658H239.662ZM211.943 35.5742C220.394 35.5742 226.364 40.4352 227.379 49.0322H196.618C197.521 40.7773 204.167 35.5742 211.943 35.5742Z" fill="#39344B"></path>
<path d="M174.584 37.8911C177.928 37.8911 180.639 35.1704 180.639 31.8142C180.639 28.458 177.928 25.7373 174.584 25.7373C171.24 25.7373 168.529 28.458 168.529 31.8142C168.529 35.1704 171.24 37.8911 174.584 37.8911Z" fill="#39344B"></path>
</g>
<defs>
<clipPath id="clip0_2232_2814">
<rect width="240" height="85" fill="white"></rect>
</clipPath>
</defs>
</svg>